<svg width="191" height="47" viewBox="0 0 191 47" fill="none" xmlns="http://www.w3.org/2000/svg">
<path d="M14.968 0.303997C19.0213 0.303997 22.4133 0.687997 25.144 1.456C27.9173 2.18133 29.9867 3.39733 31.352 5.104C32.76 6.768 33.464 9.02933 33.464 11.888C33.464 13.5947 33.1867 15.152 32.632 16.56C32.0773 17.968 31.2667 19.12 30.2 20.016C29.176 20.912 27.9173 21.488 26.424 21.744V22.064C27.96 22.3627 29.3467 22.896 30.584 23.664C31.8213 24.432 32.8027 25.5413 33.528 26.992C34.2533 28.4427 34.616 30.3627 34.616 32.752C34.616 35.5253 33.9333 37.9147 32.568 39.92C31.2453 41.8827 29.3253 43.3973 26.808 44.464C24.2907 45.488 21.304 46 17.848 46H0.76V0.303997H14.968ZM16.056 18.416C18.872 18.416 20.8133 17.968 21.88 17.072C22.9893 16.176 23.544 14.8747 23.544 13.168C23.544 11.4187 22.904 10.16 21.624 9.392C20.344 8.624 18.3173 8.24 15.544 8.24H10.424V18.416H16.056ZM10.424 26.096V38H16.76C19.6613 38 21.688 37.4453 22.84 36.336C23.992 35.184 24.568 33.6693 24.568 31.792C24.568 30.64 24.312 29.6373 23.8 28.784C23.3307 27.9307 22.4987 27.2693 21.304 26.8C20.1093 26.3307 18.488 26.096 16.44 26.096H10.424ZM60.848 46H40.048V40.496L45.616 37.936V8.368L40.048 5.808V0.303997H60.848V5.808L55.28 8.368V37.936L60.848 40.496V46ZM86.235 46H76.571V8.368H64.155V0.303997H98.651V8.368H86.235V46ZM142.882 29.872C142.882 33.0293 142.178 35.888 140.77 38.448C139.404 40.9653 137.314 42.9707 134.498 44.464C131.724 45.9147 128.204 46.64 123.938 46.64C117.879 46.64 113.271 45.104 110.114 42.032C106.956 38.9173 105.378 34.8213 105.378 29.744V0.303997H115.042V28.272C115.042 32.0267 115.81 34.672 117.346 36.208C118.882 37.744 121.164 38.512 124.194 38.512C126.327 38.512 128.055 38.1493 129.378 37.424C130.7 36.6987 131.66 35.568 132.257 34.032C132.898 32.496 133.218 30.5547 133.218 28.208V0.303997H142.882V29.872ZM191.001 46H179.929L169.305 28.72L158.681 46H148.312L163.481 22.448L149.273 0.303997H159.961L169.817 16.752L179.481 0.303997H189.913L175.577 22.96L191.001 46Z" fill="white"/>
</svg>
